<svg width="8" height="8" viewBox="0 0 8 8" fill="none" xmlns="http://www.w3.org/2000/svg">
<path d="M0.19707 0.197729C0.459613 -0.0647923 0.88528 -0.0647923 1.14782 0.197729L7.80309 6.85244C8.06564 7.11496 8.06564 7.54059 7.80309 7.80311C7.54055 8.06563 7.11488 8.06563 6.85234 7.80311L0.19707 1.1484C-0.0654729 0.88588 -0.0654729 0.46025 0.19707 0.197729Z" fill="white"/>
<path d="M0.196907 7.80227C-0.0656358 7.53975 -0.0656358 7.11412 0.196907 6.8516L6.85218 0.196891C7.11472 -0.0656302 7.54039 -0.0656302 7.80293 0.196891C8.06547 0.459412 8.06547 0.885042 7.80293 1.14756L1.14766 7.80227C0.885117 8.06479 0.45945 8.06479 0.196907 7.80227Z" fill="white"/>
</svg>
